<?xml version="1.0" encoding="UTF-8"?>
<!DOCTYPE svg PUBLIC "-//W3C//DTD SVG 1.1//EN" "http://www.w3.org/Graphics/SVG/1.1/DTD/svg11.dtd">
<!-- Creator: CorelDRAW X7 -->
<?xml-stylesheet href="frame.css" type="text/css"?>
<svg xmlns="http://www.w3.org/2000/svg" xml:space="preserve" width="5000px" height="267px" version="1.1" style="shape-rendering:geometricPrecision; text-rendering:geometricPrecision; image-rendering:optimizeQuality; fill-rule:evenodd; clip-rule:evenodd"
viewBox="0 0 5022 268"
 xmlns:xlink="http://www.w3.org/1999/xlink">
 <g id="Слой_x0020_1">
  <metadata id="CorelCorpID_0Corel-Layer"/>
  <path class="fil0" d="M0 268l5022 0 0 -268c-24,0 -57,5 -77,7 -28,4 -56,5 -80,9 -152,19 -320,31 -468,50 -54,7 -102,9 -156,16 -55,8 -104,9 -159,17 -143,19 -329,30 -469,49 -54,8 -104,10 -158,18 -54,7 -102,8 -156,16 -141,19 -331,31 -473,50l-315 32 -626 -65c-95,-13 -213,-20 -315,-33 -101,-12 -208,-20 -313,-33 -49,-7 -102,-11 -156,-17l-1101 -116 0 268z"/>
 </g>
</svg>
